<svg xmlns="http://www.w3.org/2000/svg" viewBox="0 0 96 96" role="img" aria-label="Luis Fuentes">
  <defs>
    <linearGradient id="g" x1="0" y1="0" x2="0" y2="1">
      <stop offset="0" stop-color="#C06A3C"/><stop offset="1" stop-color="#8F4A24"/>
    </linearGradient>
    <clipPath id="c"><circle cx="48" cy="48" r="48"/></clipPath>
  </defs>
  <g clip-path="url(#c)">
    <rect width="96" height="96" fill="url(#g)"/>
    <path d="M6 96C6 74 22 64 48 64s42 10 42 32Z" fill="#2C333B"/>
    <path d="M40 65l8 6 8-6 3 31H37Z" fill="#454E58"/>
    <path d="M44 66h8v3l-4 3-4-3Z" fill="#B8383B"/>
    <path d="M42 58h12v10a6 6 0 0 1-12 0Z" fill="#C68A5C"/>
    <ellipse cx="48" cy="46" rx="16" ry="17.5" fill="#D19B6B"/>
    <path d="M40 60c2 3 5 4 8 4s6-1 8-4c2 4 1 8-8 8s-10-4-8-8Z" fill="#6E5A4A" opacity=".55"/>
    <path d="M32 44c0-12 8-19 16-19s16 7 16 19c-3-6-4-8-7-9-5 3-13 3-18 0-3 2-4 4-7 9Z" fill="#C9CDD2"/>
    <path d="M33 44c-2 9 1 17 4 21-5-4-7-12-6-21ZM63 44c2 9-1 17-4 21 5-4 7-12 6-21Z" fill="#D4D8DC"/>
    <circle cx="41" cy="46" r="2.1" fill="#33261C"/>
    <circle cx="55" cy="46" r="2.1" fill="#33261C"/>
    <path d="M37 41c2-1 5-1 7 .5M52 41.5c2-1.5 5-1.5 7-.5" stroke="#B9BDC2" stroke-width="1.8" fill="none" stroke-linecap="round"/>
    <path d="M44 55c2.5 2 5.5 2 8 0" stroke="#8A5236" stroke-width="1.8" fill="none" stroke-linecap="round"/>
  </g>
</svg>
